<svg xmlns="http://www.w3.org/2000/svg" viewBox="0 0 468.59 468.6">
  <title>Ben Yafai</title>
  <defs>
      <style>
          .me-background {
              fill: yellowgreen;
          }
          .me-leftarm,
          .me-rightarm {
              fill: #0d5291;
          }
          .me-hair {
              fill: #141312;
          }
          .me-body {
              fill: dodgerblue;
          }
          .me-skin {
              fill: #f7cba9;
          }
          .me-skinshade {
              fill: #e8a679;
          }
          .me-eyes {
              fill: #39395c;
          }
      </style>
  </defs>
  <g id="Background">
    <circle class="me-background" cx="234.3" cy="234.3" r="234.3"/>
  </g>
  <g id="RightArm">
    <path class="me-rightarm" d="M397.47,508.76a234.43,234.43,0,0,1-32.88,12.89q-5.41,1.67-11,3.07c-13.24-62.53-10.26-97.68-9-119.5,0-.34,0-.68,0-1l11.68-1.5v.05C358.59,430.3,379.29,474.63,397.47,508.76Z" transform="translate(-61.41 -63.35)"/>
  </g>
  <g id="Hair">
    <path class="me-hair" d="M379.28,252.09a186.47,186.47,0,0,0,2.21-45s2.29-16.22-.54-24.49-6.86-12.63-8.28-17.64-10-15.19-36.25-25.8-73.6-8.93-100.6,6.75-39.41,44.85-37.67,77.3,11.54,55.09,20.47,64.88,8.87,16.17,1.69,20.42-46.55,3.75-65.06,18.78,5.12,47.69,25.05,57.16,74.46-36.58,82.63-66.31,15-60.42,44.42-71.2,58.47-4.9,59.77-4.9S378.91,254.26,379.28,252.09Z" transform="translate(-61.41 -63.35)"/>
  </g>
  <g id="Body">
    <path class="me-body" d="M364.59,521.65q-5.41,1.67-11,3.07a235.79,235.79,0,0,1-97.78,3.84q-4.53-.76-9-1.71a234.14,234.14,0,0,1-127.19-74.57c20.59-52.86,50.11-92.38,109.84-115.88,36.14,10.46,91.66,14.38,106,23.3,13.84,8.6,21.42,21.82,20.8,43v.05c0,.81-.06,1.63-.1,2.47C355,426.67,352.1,461,364.59,521.65Z" transform="translate(-61.41 -63.35)"/>
  </g>
  <g id="LeftArm">
    <path class="me-leftarm" d="M255.85,528.56q-4.53-.76-9-1.71c-.68-25-1.7-63.06-.81-63.06C247.21,463.79,253.55,500,255.85,528.56Z" transform="translate(-61.41 -63.35)"/>
  </g>
  <g id="Skin" data-name="skin color">
    <path class="me-skin" d="M380.34,262.43c-.65,25.31-3.58,52.74-18.44,71.69s-55.69,27.6-55.69,27.6q-.22.63-.48,1.26a56,56,0,0,1-8.36,14.74c-14.39,18-36.86,20.13-52.9,11.6-19.91-10.61-23.67-27.6-23.67-37.08s4.57-45.07,6.2-50.78,5.88-20.25,5.88-20.25-10.12-8.5-14.7-20.36-3.37-18,5.12-20.25,15.68,4.78,16.44,7,1.31,16.56,1.41,18.19,5.55,1.19,6.32,0-2.94-9.8-.32-16,9.82-13.21,12.11-17.29,2.61-12,3.67-12.74,6,1.94,6,1.94c40.3-50.53,93.86-33.76,100.6-23.74S381,237.11,380.34,262.43Z" transform="translate(-61.41 -63.35)"/>
  </g>
  <g id="SkinShade" data-name="skin shade">
    <g>
      <path class="me-skinshade" d="M305.73,363a56,56,0,0,1-8.36,14.74c-10.49-2.77-27.5-8.57-36.29-18.67C247.8,343.81,240.62,315.5,243,290c0,2,18.51,39.42,34,54.88C285.72,353.64,297.3,359.52,305.73,363Z" transform="translate(-61.41 -63.35)"/>
      <path class="me-skinshade" d="M343.82,306.81a.79.79,0,0,1-.21-1.54c5-1.41,10.62-3.7,10.88-4.86.21-.93-1.09-3.18-2.24-5.17-1.36-2.35-2.76-4.79-3.1-6.94-.66-4.16-.35-21.61-.34-22.35a.75.75,0,0,1,.8-.77.79.79,0,0,1,.77.8c0,.18-.32,18,.31,22.07.3,1.87,1.69,4.28,2.92,6.41,1.48,2.56,2.76,4.77,2.41,6.3-.6,2.64-9.33,5.28-12,6A.76.76,0,0,1,343.82,306.81Z" transform="translate(-61.41 -63.35)"/>
    </g>
  </g>
  <g id="Eyes">
    <g>
      <path class="me-eyes" d="M298.86,268.17a.87.87,0,0,1-.75-.44.85.85,0,0,1,.34-1.15,55.53,55.53,0,0,1,30.09-6.84l1,0a.85.85,0,1,1,0,1.7l-1.1,0a53.85,53.85,0,0,0-29.2,6.63A.79.79,0,0,1,298.86,268.17Z" transform="translate(-61.41 -63.35)"/>
      <path class="me-eyes" d="M360.26,260.66a.84.84,0,0,1-.77-.5.85.85,0,0,1,.42-1.12,31.55,31.55,0,0,1,15.83-2.27.83.83,0,0,1,.71,1,.85.85,0,0,1-1,.72,30.42,30.42,0,0,0-14.88,2.14A.84.84,0,0,1,360.26,260.66Z" transform="translate(-61.41 -63.35)"/>
      <path class="me-eyes" d="M309.72,281a.74.74,0,0,1-.47-.16.78.78,0,0,1-.16-1.1c1.45-1.91,5-3.28,8.06-3.12a5.17,5.17,0,0,1,4.35,2.21.79.79,0,1,1-1.35.81,3.71,3.71,0,0,0-3.08-1.45c-2.52-.13-5.6,1-6.73,2.5A.77.77,0,0,1,309.72,281Z" transform="translate(-61.41 -63.35)"/>
      <path class="me-eyes" d="M366.88,274.89a.79.79,0,0,1-.64-1.25,6,6,0,0,1,5.86-2.5,4.45,4.45,0,0,1,3.68,2.54.78.78,0,0,1-.48,1,.79.79,0,0,1-1-.48,3,3,0,0,0-2.43-1.51,4.47,4.47,0,0,0-4.36,1.87A.78.78,0,0,1,366.88,274.89Z" transform="translate(-61.41 -63.35)"/>
    </g>
  </g>
  <g id="Beard">
    <path class="me-hair" d="M372.57,310.06c-2.62-4.36-14.81-6.75-33.54-.87s-36.14,23.51-32.82,52.53c15.35,7.18,32.57,3.49,45.32-8.41S375.18,314.41,372.57,310.06Zm-12.85,22.21c-4.46,2.07-9-2.4-9.36-6.32,0,0-3.05,9.37-11.87,11.76s-11-14.59-1-18.83c.24-.11.49-.2.74-.3a14.76,14.76,0,0,0,9.25,3.51c3,0,6.44-1,10.2-4a.78.78,0,1,0-1-1.22c-7.81,6.21-14,3.18-16.82,1.08,9.31-3.46,18.85-4.32,21.55-2.32C364.4,317.79,364.18,330.2,359.72,332.27Z" transform="translate(-61.41 -63.35)"/>
  </g>
</svg>