<?xml version="1.0" standalone="no"?>
<!DOCTYPE svg PUBLIC "-//W3C//DTD SVG 20010904//EN"
 "http://www.w3.org/TR/2001/REC-SVG-20010904/DTD/svg10.dtd">
<svg version="1.0" xmlns="http://www.w3.org/2000/svg"
 width="4335.000000pt" height="4830.000000pt" viewBox="0 0 4335.000000 4830.000000"
 preserveAspectRatio="xMidYMid meet">

<g transform="translate(0.000000,4830.000000) scale(0.100000,-0.100000)"
fill="#000000" stroke="none">
<path d="M21480 48280 c-339 -88 -732 -475 -1462 -1440 -414 -548 -779 -1058
-2103 -2940 -3434 -4881 -5499 -7682 -7144 -9695 -756 -925 -1222 -1446 -1837
-2055 -1603 -1587 -3152 -2805 -4264 -3354 -472 -234 -844 -349 -1190 -371
-127 -8 -534 31 -730 71 -821 165 -1307 760 -1524 1864 -183 937 -144 2251
120 4020 254 1700 644 3238 1139 4495 104 265 146 361 458 1065 342 771 445
996 602 1315 236 478 366 687 529 851 159 159 268 201 486 184 134 -10 184
-37 298 -155 48 -51 106 -102 129 -114 54 -27 112 -27 146 -1 43 34 52 79 51
260 -4 352 -73 559 -244 731 -75 75 -100 93 -191 137 -149 72 -253 97 -409 96
-110 0 -135 -3 -210 -28 -408 -136 -829 -486 -1227 -1020 -105 -140 -304 -443
-403 -611 -228 -389 -644 -1343 -1048 -2405 -704 -1846 -1166 -3467 -1301
-4559 -29 -230 -29 -231 -61 -691 -27 -389 -42 -626 -71 -1095 -17 -284 -23
-1066 -10 -1290 29 -490 91 -914 226 -1550 66 -309 110 -481 172 -670 188
-579 454 -1037 804 -1382 196 -193 375 -322 604 -434 522 -255 1104 -294 1920
-128 1397 285 2910 1069 4300 2229 424 354 693 611 1535 1461 1557 1574 2152
2210 2956 3164 923 1094 1694 2110 3101 4085 1497 2102 2222 3140 2725 3900
303 458 462 668 595 790 86 78 117 65 88 -37 -26 -90 -69 -188 -268 -613
-1062 -2269 -2470 -5353 -3409 -7465 -915 -2060 -1467 -3347 -1965 -4585 -337
-837 -538 -1312 -1113 -2631 -965 -2210 -2114 -4787 -5185 -11629 -3202 -7135
-4285 -9572 -4715 -10615 -113 -274 -319 -877 -399 -1170 -50 -183 -78 -346
-65 -383 41 -118 240 130 647 810 734 1225 2003 3645 3845 7328 1758 3515
3527 7163 5044 10400 1028 2192 1613 3489 2178 4826 1475 3490 3807 8805 6662
15189 512 1144 1139 2541 1400 3120 313 692 372 826 428 965 274 683 335 1164
182 1454 -67 127 -177 215 -343 271 -167 57 -343 70 -479 35z"/>
<path d="M33235 42093 c-231 -21 -544 -133 -722 -259 -64 -45 -367 -357 -578
-594 -674 -757 -1243 -1582 -2413 -3500 -520 -853 -1679 -2777 -1952 -3240
-762 -1297 -1381 -2436 -2048 -3770 -574 -1148 -970 -2000 -1302 -2804 l-82
-198 -446 -532 c-616 -734 -789 -930 -1123 -1271 -406 -415 -839 -825 -1554
-1470 -493 -445 -860 -672 -1155 -716 -173 -25 -294 16 -423 144 -176 174
-212 360 -114 597 60 145 102 212 368 575 159 217 479 718 761 1190 513 858
1000 1752 1506 2765 808 1615 1218 2617 1318 3225 23 138 26 435 5 540 -19 95
-65 226 -108 304 -126 232 -415 462 -663 526 -86 23 -236 23 -320 1 -193 -49
-401 -199 -598 -429 -198 -231 -371 -490 -740 -1107 -146 -245 -336 -560 -422
-700 -563 -914 -998 -1797 -1413 -2865 -448 -1155 -850 -2569 -1033 -3635
l-36 -205 -52 -50 c-29 -27 -154 -146 -277 -264 -429 -410 -709 -632 -1184
-941 -512 -332 -653 -396 -859 -388 -88 3 -110 8 -169 36 -196 91 -325 354
-367 744 -13 126 -13 362 1 486 53 485 366 1504 699 2272 790 1826 1769 3392
2692 4307 208 206 304 287 489 414 162 111 268 212 289 274 18 54 5 115 -39
183 -68 105 -139 139 -312 149 -488 29 -1151 -352 -1762 -1012 -453 -489 -868
-1074 -1313 -1850 -795 -1390 -1343 -2751 -1614 -4011 -154 -715 -234 -1549
-177 -1838 53 -261 169 -497 383 -776 244 -319 506 -443 964 -457 475 -15 940
106 1503 388 280 141 496 281 694 450 180 154 302 224 408 235 120 12 190 -31
267 -163 243 -418 636 -644 1076 -619 469 26 1043 209 1477 469 180 107 266
173 570 433 301 257 545 396 671 381 82 -9 114 -61 114 -185 0 -149 -54 -315
-230 -707 -271 -604 -620 -1433 -1207 -2870 -184 -451 -357 -874 -385 -940
l-49 -120 -222 -73 c-343 -113 -950 -341 -1600 -601 -1928 -771 -5557 -2381
-6857 -3042 -288 -147 -342 -170 -620 -271 -387 -140 -648 -228 -678 -228 -32
0 -59 15 -111 63 -40 36 -46 39 -88 34 -94 -10 -251 -111 -465 -299 -117 -101
-172 -167 -213 -254 -79 -167 -47 -324 92 -454 78 -73 183 -125 295 -147 105
-20 242 -7 473 42 713 154 1814 576 3305 1267 1414 656 3181 1390 5410 2246
733 282 810 310 810 295 0 -19 -33 -135 -141 -495 -355 -1189 -1295 -4139
-3099 -9733 -891 -2763 -928 -2878 -1215 -3810 -640 -2078 -918 -3187 -810
-3229 94 -36 475 707 1066 2081 76 177 169 397 208 490 38 92 1373 3606 2966
7808 1593 4202 2900 7643 2904 7648 10 10 4407 1186 4851 1297 3241 809 6342
1030 9030 644 331 -47 1048 -168 1190 -200 233 -52 467 -142 633 -243 77 -47
117 -78 349 -275 203 -173 303 -215 399 -166 85 44 98 121 43 250 -39 92 -76
142 -174 240 -322 322 -863 675 -1351 883 -650 277 -1795 504 -3014 597 -771
59 -1716 66 -2585 20 -1599 -85 -3412 -381 -5680 -925 -952 -229 -2538 -663
-3113 -851 -43 -15 -80 -24 -83 -22 -28 28 722 2077 1166 3188 502 1256 1029
2443 1655 3730 207 425 579 1156 631 1237 40 63 316 447 1441 2000 1429 1976
1752 2435 2482 3533 1551 2331 3098 4956 4046 6865 169 341 220 461 288 670
219 674 216 1188 -6 1409 -95 94 -249 157 -428 176 -100 10 -115 10 -194 3z"/>
<path d="M42860 40730 c-283 -50 -524 -374 -695 -935 -98 -321 -416 -1756
-440 -1985 -7 -68 8 -101 52 -114 52 -14 60 -5 246 318 199 347 499 815 910
1421 276 406 326 496 378 674 65 223 38 402 -75 509 -94 89 -247 134 -376 112z"/>
<path d="M32180 32839 c-472 -34 -896 -257 -1475 -774 -265 -237 -829 -787
-1005 -982 -452 -498 -1022 -1255 -1597 -2118 -800 -1202 -1419 -2371 -1833
-3467 -401 -1057 -626 -2151 -570 -2763 64 -686 402 -1052 1030 -1116 465 -47
1177 137 1813 469 712 370 2242 1713 3928 3448 887 913 1365 1435 1744 1902
184 227 271 321 349 376 118 84 173 86 214 6 26 -50 26 -50 3 -495 -18 -346
-51 -1545 -51 -1865 0 -503 74 -836 240 -1090 201 -303 531 -434 947 -375 269
38 549 145 719 273 213 161 601 533 883 846 78 88 277 319 440 515 432 516
557 641 645 644 31 1 44 -6 84 -46 l47 -47 3 -78 c2 -59 -5 -116 -32 -242
-164 -770 -226 -1137 -277 -1655 -16 -164 -6 -553 20 -772 48 -409 140 -855
238 -1158 65 -201 135 -305 205 -305 47 0 78 26 132 113 100 161 212 473 411
1143 109 367 188 657 449 1644 644 2444 957 3679 1035 4096 83 437 92 768 27
955 -33 95 -86 170 -206 290 -90 91 -118 112 -197 152 -323 161 -647 68 -998
-287 -123 -123 -230 -255 -475 -581 -281 -374 -498 -692 -1000 -1465 -1061
-1635 -1566 -2250 -1877 -2287 -48 -5 -54 -3 -81 24 -86 85 -69 307 89 1218
238 1366 263 1562 264 2005 0 232 -3 306 -18 395 -36 208 -94 368 -181 489
-90 127 -280 277 -408 323 -67 25 -219 28 -318 8 -257 -52 -560 -203 -865
-430 -304 -225 -518 -434 -805 -785 -488 -598 -1481 -1642 -2991 -3146 -1285
-1279 -2256 -2203 -2654 -2525 -555 -448 -943 -573 -1133 -365 -134 146 -171
433 -111 851 42 294 62 362 197 660 162 360 250 560 369 840 222 520 406 888
716 1429 515 902 1196 1921 1992 2981 879 1171 1248 1583 1655 1847 221 144
404 208 594 208 174 0 307 -55 441 -182 100 -94 155 -175 240 -351 77 -159
111 -197 179 -197 67 0 102 49 136 192 16 68 20 118 20 280 0 394 -63 655
-213 881 -68 101 -197 226 -293 283 -152 90 -347 147 -544 159 -52 3 -115 7
-140 9 -25 2 -92 0 -150 -5z"/>
</g>
</svg>
